<?xml version="1.0" encoding="UTF-8"?>
<!DOCTYPE svg PUBLIC "-//W3C//DTD SVG 1.1//EN" "http://www.w3.org/Graphics/SVG/1.1/DTD/svg11.dtd">
<!-- Creator: CorelDRAW -->
<svg xmlns="http://www.w3.org/2000/svg" xml:space="preserve" width="128.031mm" height="115.955mm" version="1.1" style="shape-rendering:geometricPrecision; text-rendering:geometricPrecision; image-rendering:optimizeQuality; fill-rule:evenodd; clip-rule:evenodd"
viewBox="0 0 12834.8 11624.23"
 xmlns:xlink="http://www.w3.org/1999/xlink"
 xmlns:xodm="http://www.corel.com/coreldraw/odm/2003">
 <defs>
  <style type="text/css">
   <![CDATA[
    .fil7 {fill:#338571}
    .fil0 {fill:#436BA5}
    .fil1 {fill:#6AC0AD}
    .fil5 {fill:#EFE9D9}
    .fil6 {fill:#F3EAD5}
    .fil4 {fill:#FD7E1E}
    .fil2 {fill:#FDC141}
    .fil8 {fill:#FDE9C4}
    .fil3 {fill:#FDFDFD}
   ]]>
  </style>
 </defs>
 <g id="Layer_x0020_1">
  <metadata id="CorelCorpID_0Corel-Layer"/>
  <g id="_54214865504">
   <path class="fil0" d="M2408.71 2838.68c-65.69,-203.23 -13.27,-472.1 175.43,-512.89 119.5,-25.82 557.35,-7.77 709.13,-7.87 434.07,-0.3 653.71,-84.73 615.83,435.28 -14.56,199.8 -99.6,145.03 -142.09,231.64 -30.44,62.02 -16.59,572.01 -5.69,672.05 68.3,627.52 563.48,771.12 746.52,1376.48 112.17,370.97 62.36,2235.33 63.65,2756.22l-0.22 2128.42c-0.32,238.69 -64.62,394.12 -219.43,493.32 -231.02,148.03 -1009.44,80.16 -1340.85,80.25 -231.62,0.07 -463.34,0.82 -694.95,0.18 -249.36,-0.7 -397.71,-60.51 -501.83,-223.69 -129.65,-203.21 -77,-1024.54 -77.19,-1327.61l-0.26 -2822.89c-0.52,-437.33 -42.69,-904.84 138.39,-1266.5 310.68,-620.53 677.84,-587.19 677.68,-1447.77 -0.13,-758.37 -57.08,-295.3 -144.13,-564.63zm1625.19 -2805.03c-52.97,560.45 143.57,1246.42 -217.82,1206.41 -99.13,-10.98 -108.49,-78 -214.57,-67.3 -90.35,9.12 -107.57,73.07 -220.81,67.19 -103.82,-5.38 -111.89,-67.58 -219.12,-70.82 -115.39,-3.5 -115.03,58.1 -217.31,69.75 -130.28,14.83 -124.18,-52.93 -221.36,-65.46 -95.42,-12.32 -313.46,171.35 -410.07,-24.64 -47.34,-96.03 -19.53,-931.1 -25.84,-1110.75 -344.22,0.47 -690.05,0.07 -1034.89,0.71 -605.18,1.13 -1252.7,-72.22 -1251.91,867.33l0.82 9576.12c0.78,351.88 -28.37,652.51 177.38,877.89 224.67,246.1 403.43,246.68 813.14,247.41l4234.32 0.12c888.83,0.15 1072.43,-176.07 1072.18,-1060.28l-0.29 -9576.1c1.27,-971.78 -489.29,-933.4 -1202.17,-932.51 -313.16,0.4 -765.97,26.16 -1061.68,-5.07z"/>
   <path class="fil1" d="M9148.67 4388.02c12.74,-213.03 528.9,-1044.74 710.48,-1280.45 66.56,-86.41 253.37,-297.45 276.83,-404.27 -118.08,9.33 -194.28,113.15 -265.07,176.81 -395.87,355.98 -660.01,796.01 -882.91,1289.18 -50.42,111.57 -220.55,570.07 -266.1,618.45l-129.46 -78.23c11.88,-178.12 223.44,-422.92 190.63,-559.55 -41.46,-172.68 -144.91,-222.48 -127.21,-638.9 34.14,-803.37 643.95,-1406.47 1358.46,-1681.76 236.4,-91.09 960.4,-303.58 1229.96,-318.51 12.03,177.36 -103.87,902.93 -144.97,1096.77 -69.84,329.4 -188.92,663.59 -349.62,912.56 -261.32,404.81 -842.5,968.62 -1601.02,867.91zm1498.3 -4388.02c-0.99,176.13 43.47,918.51 -44.13,1005.45 -149.64,148.53 -239.14,-45.88 -392.48,-2.1 -85.09,24.3 -81.95,75.16 -201.54,51.16 -79.55,-15.96 -77.98,-59.52 -179.87,-61.05 -109.62,-1.65 -116,52.03 -199.14,64.67 -90.49,13.77 -121.33,-42.46 -199.26,-59.42 -142.76,-31.04 -265.36,150.57 -385.74,-3.15 -72.1,-92.08 -34.24,-816 -33.24,-995.48 -398.76,35.33 -920.07,7.48 -1331.95,7.37 -237.75,-0.06 -372.54,-8.66 -553.64,106.04 -129.88,82.25 -235.74,203.51 -286.97,386.86 -51.01,182.57 -24.12,2277.65 -25.05,2642.33 -1.15,441.4 -0.12,883.15 0.48,1324.58 0.5,357.61 -51.55,724.04 380.39,941.31 254.03,127.79 2177.82,63.12 2612.81,64.08 421.01,0.92 2362.3,45.75 2603.84,-50.84 434.08,-173.6 414.88,-569.89 414.65,-911.12 -0.29,-448.76 -0.1,-897.53 -0.04,-1346.3 0.05,-384.66 27.69,-2434.69 -15.78,-2637.42 -170.68,-796.02 -1198.94,-418.49 -2163.34,-526.98z"/>
   <path class="fil2" d="M9956.07 8226.11c704.68,21.06 1298.48,698.21 1228.28,1431.83 -65.59,685.61 -642.26,1278.08 -1399.05,1261.23 -1094.74,-24.37 -1808.47,-1340.34 -962.35,-2290.36 198.31,-222.66 480.94,-344.68 897.02,-406.35l82.8 -235.1c-342.26,47.54 -612.09,-56.78 -803.33,-236.34 -84.18,-79.04 -164.84,-184.81 -220.1,-323.35 -189.74,-475.7 -95.51,-561.42 398.85,-422.63 132.73,37.25 248.32,106.74 325.77,175.71 140.08,124.77 254.44,276.8 304.71,476.44 7.59,30.14 14.24,73.11 24.74,103.94 5.63,16.5 12.92,30.82 20.77,46.47 1.64,3.27 7.8,17.12 9.05,13.89 1.26,-3.24 5.93,9.45 9.53,13.67 66.67,-93.49 88.78,-170.6 162.71,-251.81 226.57,-248.84 619.03,-380.17 865.16,-236.56 23.98,207.46 -161.56,488.44 -256.96,562.47 -207.93,161.36 -326.56,148.62 -634.07,151.7l-53.54 165.16zm2272.9 -2302.47l-1585.73 -5.22c4.62,149.21 0.16,308.85 1.32,459.99 4.52,590.09 -251.29,215.29 -466.69,305.41 -254.44,106.46 -173.08,-11.79 -349.49,-24.75 -186.64,-13.71 -96.12,122.65 -347.32,21.48 -180.13,-72.54 -195.65,88.78 -354.61,33.06 -199.12,-69.8 -111.89,-584.21 -115.09,-806.31 -1004.38,103.91 -1853.87,-247.4 -2146.24,416.7 -102.36,232.5 -51.49,2061.23 -50.26,2464.45 1.36,445.34 -65.19,2176.1 66.15,2448.54 170.15,352.95 429.86,380.03 885.46,380.2l3800.04 -0.6c449.78,-2.05 788.74,71.52 1065.64,-199.25 258.07,-252.34 195.71,-645.36 194.78,-1065.44 -1.87,-839.55 0.55,-1679.28 -0.03,-2518.87 -0.28,-411.57 15.23,-852.75 -0.59,-1260.5 -13.44,-346.65 -254.2,-625.28 -597.34,-648.88z"/>
   <path class="fil3" d="M2316.04 10491.76c231.61,0.64 463.33,-0.11 694.95,-0.18 331.41,-0.09 1109.83,67.78 1340.85,-80.25 154.81,-99.2 219.11,-254.63 219.43,-493.32l0.22 -2128.42c-1.28,-520.89 48.52,-2385.25 -63.65,-2756.22 -183.04,-605.37 -678.23,-748.96 -746.52,-1376.48 -10.9,-100.04 -24.74,-610.03 5.69,-672.05 42.5,-86.61 127.54,-31.84 142.09,-231.64 37.87,-520.01 -181.76,-435.58 -615.83,-435.28 -151.79,0.1 -589.64,-17.95 -709.13,7.87 -188.71,40.79 -241.13,309.66 -175.43,512.89 87.05,269.33 144,-193.75 144.13,564.63 0.15,860.58 -367.01,827.23 -677.68,1447.77 -181.08,361.66 -138.91,829.17 -138.39,1266.5l0.26 2822.89c0.19,303.07 -52.46,1124.4 77.19,1327.61 104.12,163.18 252.47,222.99 501.83,223.69z"/>
   <path class="fil4" d="M9956.07 8226.11c-65.15,221 62.44,459.91 -210.66,405.65 -82.54,-126.4 -45.09,-241.31 -25.44,-409.31 -416.08,61.67 -698.71,183.69 -897.02,406.35 -846.12,950.02 -132.39,2265.99 962.35,2290.36 756.79,16.85 1333.46,-575.61 1399.05,-1261.23 70.2,-733.62 -523.59,-1410.77 -1228.28,-1431.83z"/>
   <path class="fil3" d="M9148.67 4388.02c758.51,100.71 1339.7,-463.1 1601.02,-867.91 160.71,-248.97 279.78,-583.15 349.62,-912.56 41.1,-193.84 157,-919.41 144.97,-1096.77 -269.56,14.93 -993.56,227.42 -1229.96,318.51 -714.51,275.29 -1324.31,878.39 -1358.46,1681.76 -17.69,416.42 85.75,466.22 127.21,638.9 32.81,136.64 -178.75,381.43 -190.63,559.55l129.46 78.23c45.55,-48.38 215.67,-506.88 266.1,-618.45 222.9,-493.17 487.04,-933.2 882.91,-1289.18 70.78,-63.66 146.98,-167.47 265.07,-176.81 -23.47,106.82 -210.27,317.86 -276.83,404.27 -181.58,235.71 -697.73,1067.43 -710.48,1280.45z"/>
   <path class="fil5" d="M4033.9 33.64l-1746.9 4.38c6.32,179.65 -21.49,1014.73 25.84,1110.75 96.61,195.99 314.66,12.32 410.07,24.64 97.18,12.53 91.08,80.29 221.36,65.46 102.27,-11.65 101.92,-73.25 217.31,-69.75 107.24,3.24 115.3,65.43 219.12,70.82 113.24,5.88 130.45,-58.06 220.81,-67.19 106.08,-10.71 115.44,56.32 214.57,67.3 361.39,40.01 164.85,-645.97 217.82,-1206.41z"/>
   <path class="fil6" d="M10646.97 0l-1635.41 0.09c-1,179.48 -38.86,903.4 33.24,995.48 120.39,153.72 242.98,-27.89 385.74,3.15 77.93,16.95 108.77,73.19 199.26,59.42 83.15,-12.64 89.52,-66.32 199.14,-64.67 101.89,1.53 100.33,45.09 179.87,61.05 119.59,24 116.45,-26.86 201.54,-51.16 153.34,-43.79 242.84,150.62 392.48,2.1 87.6,-86.94 43.14,-829.33 44.13,-1005.45z"/>
   <path class="fil7" d="M9719.97 8222.45c-19.65,168.01 -57.1,282.91 25.44,409.31 273.1,54.25 145.51,-184.66 210.66,-405.65l53.54 -165.16c307.51,-3.09 426.13,9.65 634.07,-151.7 95.4,-74.03 280.93,-355.01 256.96,-562.47 -246.13,-143.6 -638.59,-12.28 -865.16,236.56 -73.93,81.21 -96.04,158.32 -162.71,251.81 -3.6,-4.22 -8.27,-16.91 -9.53,-13.67 -1.25,3.23 -7.41,-10.63 -9.05,-13.89 -7.85,-15.66 -15.14,-29.97 -20.77,-46.47 -10.51,-30.83 -17.15,-73.79 -24.74,-103.94 -50.27,-199.63 -164.64,-351.67 -304.71,-476.44 -77.44,-68.97 -193.04,-138.46 -325.77,-175.71 -494.35,-138.78 -588.58,-53.06 -398.85,422.63 55.27,138.54 135.93,244.31 220.1,323.35 191.23,179.56 461.07,283.88 803.33,236.34l-82.8 235.1z"/>
   <path class="fil8" d="M9011.36 5907.3c3.21,222.1 -84.03,736.51 115.09,806.31 158.95,55.72 174.48,-105.6 354.61,-33.06 251.2,101.17 160.68,-35.2 347.32,-21.48 176.42,12.96 95.05,131.21 349.49,24.75 215.4,-90.12 471.21,284.67 466.69,-305.41 -1.16,-151.13 3.3,-310.78 -1.32,-459.99l1585.73 5.22 -36.61 -14.43c-163.36,-41.11 -1485.21,-9.01 -1568.54,1.91 -190.24,24.94 -580.28,3.23 -794.48,2.2 -248.23,-1.19 -582.1,20.19 -817.98,-6.02z"/>
  </g>
 </g>
</svg>
