<svg width="173" height="157" viewBox="0 0 173 157" fill="none" xmlns="http://www.w3.org/2000/svg">
<g clip-path="url(#clip0_2_3)">
<path fill-rule="evenodd" clip-rule="evenodd" d="M32.467 38.34C31.5816 35.5951 32.2882 31.9637 34.8316 31.4128C36.4424 31.064 42.3441 31.3078 44.39 31.3065C50.2408 31.3024 53.2013 30.1621 52.6907 37.1855C52.4945 39.884 51.3482 39.1443 50.7755 40.3141C50.3652 41.1517 50.5519 48.0398 50.6988 49.3909C51.6194 57.8664 58.2939 59.8059 60.7611 67.9821C62.273 72.9925 61.6017 98.173 61.6191 105.208L61.6161 133.955C61.6118 137.179 60.7451 139.278 58.6584 140.618C55.5445 142.618 45.0522 141.701 40.5851 141.702C37.4631 141.703 34.3398 141.713 31.2179 141.705C27.8568 141.695 25.8572 140.887 24.4538 138.683C22.7062 135.939 23.4159 124.846 23.4133 120.752L23.4098 82.6256C23.4028 76.7189 22.8344 70.4045 25.2752 65.5199C29.4628 57.1388 34.4118 57.5891 34.4096 45.9659C34.4079 35.7231 33.6402 41.9775 32.4669 38.3398L32.467 38.34ZM54.3729 0.454483C53.6589 8.02407 56.3081 17.289 51.4369 16.7486C50.1007 16.6003 49.9746 15.6951 48.5447 15.8396C47.3269 15.9628 47.0948 16.8265 45.5684 16.7471C44.1691 16.6744 44.0603 15.8343 42.6149 15.7906C41.0596 15.7433 41.0644 16.5753 39.6858 16.7326C37.9298 16.9329 38.012 16.0178 36.7021 15.8485C35.416 15.6821 32.477 18.1628 31.1748 15.5157C30.5367 14.2187 30.9116 2.94004 30.8265 0.51364C26.1868 0.519988 21.5254 0.514586 16.8773 0.52323C8.72007 0.538492 -0.00782191 -0.452193 0.00282647 12.2376L0.0138792 141.575C0.0243928 146.328 -0.368519 150.388 2.40478 153.432C5.43309 156.756 7.84259 156.764 13.3651 156.774L70.4393 156.776C82.4198 156.778 84.8945 154.397 84.8911 142.455L84.8872 13.1177C84.9044 -0.00743246 78.2921 0.510939 68.6832 0.52296C64.4622 0.528362 58.3588 0.876284 54.3729 0.454483Z" fill="#487BFF"/>
<path fill-rule="evenodd" clip-rule="evenodd" d="M123.315 59.2658C123.486 56.3885 130.444 45.1553 132.891 41.9717C133.788 40.8046 136.306 37.9542 136.623 36.5115C135.031 36.6375 134.004 38.0397 133.05 38.8996C127.714 43.7075 124.153 49.6507 121.149 56.3116C120.469 57.8185 118.176 64.0111 117.562 64.6645L115.817 63.6079C115.977 61.2022 118.829 57.8958 118.387 56.0505C117.828 53.7182 116.434 53.0456 116.672 47.4213C117.132 36.5708 125.352 28.4252 134.983 24.707C138.169 23.4767 147.928 20.6068 151.561 20.4051C151.723 22.8006 150.161 32.6004 149.607 35.2184C148.666 39.6674 147.061 44.181 144.895 47.5437C141.372 53.0112 133.539 60.6261 123.315 59.2659V59.2658ZM143.51 -2.26637e-06C143.497 2.37886 144.096 12.4056 142.915 13.5799C140.898 15.586 139.692 12.9602 137.625 13.5515C136.478 13.8797 136.521 14.5666 134.909 14.2425C133.836 14.0269 133.857 13.4386 132.484 13.4179C131.007 13.3957 130.921 14.1207 129.8 14.2914C128.58 14.4774 128.165 13.7179 127.114 13.4888C125.19 13.0696 123.537 15.5225 121.915 13.4463C120.943 12.2026 121.453 2.42518 121.467 0.00107824C116.092 0.478255 109.065 0.102105 103.513 0.100619C100.309 0.0998091 98.4919 -0.0163448 96.0509 1.53282C94.3003 2.64372 92.8734 4.28149 92.1828 6.75786C91.4953 9.2237 91.8577 37.5204 91.8452 42.4459C91.8297 48.4076 91.8436 54.374 91.8517 60.336C91.8584 65.166 91.1568 70.1151 96.9789 73.0496C100.403 74.7756 126.334 73.9021 132.197 73.9151C137.872 73.9275 164.038 74.533 167.294 73.2284C173.145 70.8838 172.886 65.5313 172.883 60.9226C172.879 54.8615 172.882 48.8003 172.882 42.7391C172.883 37.5438 173.256 9.85553 172.67 7.1174C170.369 -3.63387 156.509 1.46516 143.51 -0.000137329V-2.26637e-06Z" fill="#45E08C"/>
<path fill-rule="evenodd" clip-rule="evenodd" d="M134.198 111.104C143.696 111.389 151.7 120.534 150.754 130.443C149.869 139.703 142.097 147.705 131.896 147.477C117.14 147.148 107.52 129.374 118.924 116.543C121.597 113.536 125.407 111.888 131.015 111.055L132.131 107.879C127.518 108.522 123.881 107.113 121.303 104.687C120.169 103.62 119.081 102.191 118.337 100.32C115.779 93.8952 117.049 92.7375 123.713 94.612C125.502 95.1151 127.06 96.0536 128.104 96.9852C129.992 98.6703 131.533 100.724 132.211 103.42C132.313 103.827 132.403 104.408 132.544 104.824C132.62 105.047 132.718 105.24 132.824 105.452C132.846 105.496 132.929 105.683 132.946 105.639C132.963 105.595 133.026 105.767 133.075 105.824C133.973 104.561 134.271 103.52 135.268 102.423C138.322 99.0619 143.612 97.2881 146.929 99.2278C147.253 102.03 144.752 105.825 143.466 106.825C140.663 109.004 139.064 108.832 134.919 108.874L134.197 111.104L134.198 111.104ZM164.834 80.0063L143.46 79.9358C143.522 81.9511 143.462 84.1072 143.478 86.1486C143.539 94.1185 140.091 89.0563 137.187 90.2735C133.758 91.7114 134.854 90.1143 132.476 89.9392C129.961 89.754 131.181 91.5958 127.795 90.2293C125.367 89.2496 125.158 91.4284 123.015 90.6759C120.331 89.7331 121.507 82.7854 121.464 79.7856C107.926 81.189 96.4757 76.4442 92.5348 85.4137C91.1551 88.5539 91.8408 113.253 91.8574 118.699C91.8757 124.714 90.9787 148.09 92.749 151.77C95.0424 156.537 98.5431 156.903 104.684 156.905L155.905 156.897C161.967 156.869 166.536 157.863 170.268 154.206C173.747 150.798 172.906 145.489 172.894 139.816C172.869 128.476 172.901 117.135 172.893 105.795C172.89 100.236 173.099 94.2776 172.885 88.7704C172.704 84.0884 169.459 80.3252 164.834 80.0064V80.0063Z" fill="white"/>
<path fill-rule="evenodd" clip-rule="evenodd" d="M31.2179 141.705C34.3398 141.713 37.4631 141.703 40.5851 141.702C45.0522 141.701 55.5445 142.618 58.6584 140.618C60.7451 139.278 61.6118 137.179 61.6161 133.955L61.6191 105.208C61.6018 98.173 62.273 72.9925 60.7611 67.9821C58.2939 59.8058 51.6193 57.8664 50.6988 49.3909C50.5519 48.0398 50.3653 41.1517 50.7755 40.3141C51.3484 39.1443 52.4946 39.884 52.6907 37.1855C53.2012 30.1621 50.2408 31.3024 44.39 31.3064C42.344 31.3078 36.4422 31.064 34.8316 31.4127C32.288 31.9637 31.5815 35.5951 32.467 38.34C33.6404 41.9776 34.408 35.7231 34.4098 45.966C34.4118 57.5892 29.4628 57.1388 25.2753 65.52C22.8346 70.4047 23.403 76.719 23.41 82.6257L23.4135 120.752C23.4161 124.846 22.7064 135.939 24.4539 138.683C25.8574 140.887 27.857 141.695 31.2181 141.705L31.2179 141.705Z" fill="#FDFDFD"/>
<path fill-rule="evenodd" clip-rule="evenodd" d="M134.198 111.104C133.319 114.089 135.039 117.316 131.358 116.583C130.246 114.876 130.75 113.324 131.015 111.055C125.407 111.888 121.597 113.536 118.924 116.543C107.519 129.374 117.14 147.148 131.896 147.477C142.097 147.705 149.869 139.703 150.754 130.443C151.7 120.534 143.696 111.389 134.198 111.104Z" fill="#FF6900"/>
<path fill-rule="evenodd" clip-rule="evenodd" d="M123.315 59.2658C133.539 60.626 141.372 53.011 144.895 47.5436C147.061 44.1809 148.666 39.6674 149.607 35.2183C150.161 32.6002 151.723 22.8005 151.561 20.405C147.928 20.6066 138.169 23.4766 134.983 24.7069C125.352 28.425 117.132 36.5707 116.672 47.4212C116.434 53.0455 117.828 53.7181 118.387 56.0503C118.829 57.8958 115.977 61.202 115.817 63.6078L117.562 64.6644C118.176 64.0109 120.469 57.8183 121.149 56.3114C124.153 49.6505 127.714 43.7074 133.05 38.8994C134.004 38.0396 135.031 36.6375 136.623 36.5114C136.306 37.9541 133.788 40.8045 132.891 41.9715C130.444 45.1551 123.487 56.3885 123.315 59.2656V59.2658Z" fill="#FDFDFD"/>
<path fill-rule="evenodd" clip-rule="evenodd" d="M54.3729 0.454346L30.8265 0.513503C30.9117 2.9399 30.5369 14.2187 31.1748 15.5156C32.477 18.1627 35.4161 15.682 36.7021 15.8484C38.012 16.0176 37.9298 16.9328 39.6858 16.7325C41.0643 16.5752 41.0596 15.7432 42.615 15.7904C44.0604 15.8342 44.1691 16.6742 45.5685 16.747C47.0948 16.8264 47.3268 15.9628 48.5448 15.8395C49.9746 15.6948 50.1008 16.6001 51.4369 16.7484C56.3081 17.2888 53.6589 8.0238 54.3729 0.454346Z" fill="#EFE9D9"/>
<path fill-rule="evenodd" clip-rule="evenodd" d="M143.51 0L121.467 0.00121556C121.453 2.42532 120.943 12.2028 121.915 13.4464C123.537 15.5226 125.19 13.0697 127.114 13.489C128.164 13.7179 128.58 14.4775 129.8 14.2915C130.921 14.1208 131.006 13.3958 132.484 13.4181C133.857 13.4387 133.836 14.0271 134.908 14.2426C136.52 14.5668 136.478 13.8799 137.625 13.5517C139.692 12.9602 140.898 15.586 142.915 13.58C144.096 12.4058 143.497 2.37886 143.51 0.000135063L143.51 0Z" fill="#F3EAD5"/>
<path fill-rule="evenodd" clip-rule="evenodd" d="M131.015 111.055C130.75 113.324 130.246 114.876 131.358 116.583C135.039 117.316 133.319 114.089 134.198 111.104L134.919 108.873C139.064 108.832 140.663 109.004 143.466 106.824C144.752 105.825 147.252 102.03 146.929 99.2276C143.612 97.2881 138.322 99.0617 135.268 102.423C134.271 103.519 133.973 104.561 133.075 105.824C133.026 105.767 132.963 105.595 132.946 105.639C132.929 105.683 132.846 105.495 132.824 105.451C132.719 105.24 132.62 105.047 132.544 104.824C132.403 104.407 132.313 103.827 132.211 103.42C131.533 100.724 129.992 98.6702 128.104 96.985C127.06 96.0535 125.502 95.1149 123.713 94.6118C117.049 92.7374 115.779 93.8952 118.337 100.32C119.082 102.191 120.169 103.62 121.303 104.687C123.881 107.112 127.518 108.521 132.131 107.879L131.015 111.055H131.015Z" fill="#00C472"/>
<path fill-rule="evenodd" clip-rule="evenodd" d="M121.464 79.7856C121.507 82.7853 120.331 89.7331 123.015 90.6758C125.158 91.4284 125.367 89.2496 127.795 90.2293C131.181 91.5957 129.961 89.7539 132.476 89.9392C134.854 90.1142 133.758 91.7114 137.187 90.2735C140.091 89.0563 143.539 94.1183 143.478 86.1485C143.462 84.1073 143.522 81.9511 143.46 79.9358L164.834 80.0063L164.34 79.8114C162.139 79.2561 144.321 79.6897 143.198 79.8372C140.634 80.174 135.377 79.8808 132.489 79.8669C129.144 79.8508 124.643 80.1396 121.464 79.7856Z" fill="#FDE9C4"/>
</g>
<defs>
<clipPath id="clip0_2_3">
<rect width="173" height="157" fill="white"/>
</clipPath>
</defs>
</svg>
